<svg width="32" height="32" viewBox="0 0 32 32" fill="none" xmlns="http://www.w3.org/2000/svg">
<path d="M23.0576 7.05752C23.5783 6.53682 24.4217 6.53682 24.9424 7.05752C25.4631 7.57822 25.4631 8.42158 24.9424 8.94228L8.9424 24.9423C8.42171 25.463 7.57834 25.463 7.05764 24.9423C6.53694 24.4216 6.53694 23.5782 7.05764 23.0575L23.0576 7.05752Z" fill="#0A0A0A"/>
<path d="M7.05764 7.05752C7.57834 6.53682 8.42171 6.53682 8.9424 7.05752L24.9424 23.0575C25.4631 23.5782 25.4631 24.4216 24.9424 24.9423C24.4217 25.463 23.5783 25.463 23.0576 24.9423L7.05764 8.94228C6.53694 8.42158 6.53694 7.57822 7.05764 7.05752Z" fill="#0A0A0A"/>
</svg>
