<svg width="32" height="32" viewBox="0 0 32 32" fill="none" xmlns="http://www.w3.org/2000/svg">
<path d="M14.667 28.0003V9.33333C14.667 8.59695 15.2636 8.00033 16 8.00033C16.7363 8.00033 17.333 8.59695 17.333 9.33333V28.0003C17.3328 28.7366 16.7362 29.3333 16 29.3333C15.2637 29.3333 14.6671 28.7366 14.667 28.0003Z" fill="#030213"/>
<path d="M21.3336 5.33301C20.2728 5.33301 19.2547 5.75474 18.5045 6.50488C17.8014 7.20807 17.3876 8.14628 17.3385 9.13477L17.333 9.33333L17.3268 9.46973C17.2585 10.1421 16.69 10.667 15.9996 10.667C15.2634 10.6668 14.667 10.0696 14.667 9.33333C14.6669 8.27258 14.2448 7.25495 13.4948 6.50488C12.7446 5.75484 11.7274 5.33301 10.6666 5.33301H3.99963V22.667H11.9996C13.414 22.667 14.7709 23.2284 15.7711 24.2285C15.8503 24.3077 15.926 24.3901 15.9996 24.4736C16.0734 24.39 16.1498 24.3078 16.2291 24.2285C17.2292 23.2286 18.5854 22.6671 19.9996 22.667H27.9996V5.33301H21.3336ZM30.6666 22.667C30.6665 23.3741 30.3854 24.0527 29.8854 24.5527C29.3853 25.0526 28.7067 25.333 27.9996 25.333H19.9996C19.2925 25.3331 18.6139 25.6142 18.1139 26.1143C17.6139 26.6143 17.333 27.2932 17.333 28.0003L17.3268 28.1367C17.2583 28.8089 16.6902 29.3333 16 29.3333C15.3099 29.3332 14.7419 28.8088 14.6735 28.1367L14.667 28.0003L14.6539 27.7363C14.5933 27.1259 14.3229 26.5518 13.8854 26.1143C13.3853 25.6143 12.7068 25.333 11.9996 25.333H3.99963C3.29251 25.3329 2.61391 25.0528 2.11389 24.5527C1.61387 24.0527 1.3337 23.3741 1.33362 22.667V5.33301C1.3337 4.62588 1.61387 3.94729 2.11389 3.44727C2.61391 2.94725 3.29251 2.66708 3.99963 2.66699H10.6666C12.4347 2.66699 14.1303 3.369 15.3805 4.61914C15.6051 4.84379 15.8113 5.08372 15.9996 5.33496C16.188 5.08366 16.3941 4.84383 16.6188 4.61914C17.869 3.3689 19.5655 2.66699 21.3336 2.66699H27.9996C28.7067 2.66699 29.3853 2.94737 29.8854 3.44727C30.3854 3.94729 30.6665 4.62588 30.6666 5.33301V22.667Z" fill="#030213"/>
</svg>
