<svg width="32" height="32" viewBox="0 0 32 32" fill="none" xmlns="http://www.w3.org/2000/svg">
<path d="M15.9951 9.33536V27.9963" stroke="#030213" stroke-width="2.66585" stroke-linecap="round" stroke-linejoin="round"/>
<path d="M3.9987 23.9975C3.64518 23.9975 3.30615 23.8571 3.05618 23.6071C2.8062 23.3572 2.66577 23.0181 2.66577 22.6646V5.33659C2.66577 4.98307 2.8062 4.64404 3.05618 4.39407C3.30615 4.14409 3.64518 4.00366 3.9987 4.00366H10.6633C12.0774 4.00366 13.4335 4.56539 14.4334 5.56528C15.4333 6.56517 15.995 7.92131 15.995 9.33536C15.995 7.92131 16.5568 6.56517 17.5566 5.56528C18.5565 4.56539 19.9127 4.00366 21.3267 4.00366H27.9914C28.3449 4.00366 28.6839 4.14409 28.9339 4.39407C29.1838 4.64404 29.3243 4.98307 29.3243 5.33659V22.6646C29.3243 23.0181 29.1838 23.3572 28.9339 23.6071C28.6839 23.8571 28.3449 23.9975 27.9914 23.9975H19.9938C18.9333 23.9975 17.9162 24.4188 17.1662 25.1688C16.4163 25.9187 15.995 26.9358 15.995 27.9963C15.995 26.9358 15.5737 25.9187 14.8238 25.1688C14.0739 24.4188 13.0568 23.9975 11.9962 23.9975H3.9987Z" stroke="#030213" stroke-width="2.66585" stroke-linecap="round" stroke-linejoin="round"/>
</svg>
