<svg width="32" height="32" viewBox="0 0 32 32" fill="none" xmlns="http://www.w3.org/2000/svg">
<path d="M27.9998 6.4248C27.9999 5.78165 27.7445 5.16482 27.2898 4.70996C26.8351 4.2551 26.2182 3.9991 25.575 3.99902C25.0121 3.99896 24.4695 4.19515 24.0379 4.54883L23.8601 4.70898L6.06521 22.5078L6.06424 22.5098C5.90959 22.664 5.79531 22.8537 5.73123 23.0625L4.33279 27.665L8.94217 26.2676C9.15059 26.204 9.34057 26.0904 9.4949 25.9365L27.2888 8.13965L27.45 7.96191C27.8038 7.53035 27.9997 6.98775 27.9998 6.4248ZM30.6668 6.4248C30.6666 7.69101 30.1945 8.90878 29.3484 9.84277L29.1746 10.0254L11.3777 27.8252C10.9141 28.2873 10.3438 28.6288 9.71756 28.8193L3.91189 30.5801L3.90896 30.5811C3.56327 30.6849 3.19553 30.6935 2.84549 30.6055C2.49556 30.5175 2.17609 30.3359 1.92068 30.0811C1.66518 29.826 1.48291 29.5062 1.39431 29.1562C1.30573 28.8063 1.31343 28.4387 1.41678 28.0928L1.41873 28.0869L3.18045 22.2842L3.18142 22.2812C3.37345 21.655 3.71584 21.0848 4.17947 20.6221L21.9744 2.82422C22.9293 1.86954 24.2247 1.33293 25.575 1.33301C26.9253 1.33318 28.2208 1.8693 29.1756 2.82422C30.1303 3.77916 30.6668 5.07449 30.6668 6.4248Z" fill="#0A0A0A"/>
<path d="M19.0576 5.72412C19.5783 5.20342 20.4217 5.20342 20.9424 5.72412L26.2764 11.0571C26.7969 11.5778 26.797 12.4222 26.2764 12.9429C25.7558 13.4635 24.9114 13.4634 24.3907 12.9429L19.0576 7.60889C18.5369 7.08819 18.5369 6.24482 19.0576 5.72412Z" fill="#0A0A0A"/>
</svg>
