<svg width="32" height="32" viewBox="0 0 32 32" fill="none" xmlns="http://www.w3.org/2000/svg">
<path d="M21.271 21.271C21.7917 20.7503 22.6351 20.7503 23.1558 21.271L28.9429 27.0571C29.4636 27.5778 29.4636 28.4222 28.9429 28.9429C28.4222 29.4636 27.5778 29.4636 27.0571 28.9429L21.271 23.1558C20.7503 22.6351 20.7503 21.7917 21.271 21.271Z" fill="#0A0A0A"/>
<path d="M24 14.667C24 9.51244 19.8215 5.33318 14.667 5.33301C9.51233 5.33301 5.33301 9.51233 5.33301 14.667C5.33318 19.8215 9.51244 24 14.667 24C19.8214 23.9998 23.9998 19.8214 24 14.667ZM26.667 14.667C26.6668 21.2942 21.2942 26.6668 14.667 26.667C8.03968 26.667 2.66717 21.2943 2.66699 14.667C2.66699 8.03957 8.03957 2.66699 14.667 2.66699C21.2943 2.66717 26.667 8.03968 26.667 14.667Z" fill="#0A0A0A"/>
</svg>
