<svg width="16" height="17" viewBox="0 0 16 17" fill="none" xmlns="http://www.w3.org/2000/svg">
<path d="M10.6355 11.3246C10.8958 11.0643 11.3175 11.0643 11.5779 11.3246L14.4714 14.2177C14.7318 14.4781 14.7318 14.9002 14.4714 15.1606C14.2111 15.4209 13.7889 15.4209 13.5286 15.1606L10.6355 12.267C10.3751 12.0067 10.3751 11.585 10.6355 11.3246Z" fill="#717182"/>
<path d="M12 8.02264C12 5.44537 9.91075 3.35574 7.3335 3.35565C4.75617 3.35565 2.6665 5.44531 2.6665 8.02264C2.66659 10.5999 4.75622 12.6891 7.3335 12.6891C9.9107 12.6891 11.9999 10.5998 12 8.02264ZM13.3335 8.02264C13.3334 11.3362 10.6471 14.0226 7.3335 14.0226C4.01984 14.0226 1.33358 11.3363 1.3335 8.02264C1.3335 4.70894 4.01979 2.02264 7.3335 2.02264C10.6471 2.02273 13.3335 4.70899 13.3335 8.02264Z" fill="#717182"/>
</svg>
