<svg width="32" height="32" viewBox="0 0 32 32" fill="none" xmlns="http://www.w3.org/2000/svg">
<path d="M15.3667 3.06018C15.4251 2.94213 15.5154 2.84276 15.6273 2.77328C15.7392 2.70381 15.8683 2.66699 16 2.66699C16.1318 2.66699 16.2609 2.70381 16.3728 2.77328C16.4847 2.84276 16.575 2.94213 16.6334 3.06018L19.7134 9.29885C19.9163 9.70947 20.2158 10.0647 20.5862 10.3341C20.9566 10.6035 21.3869 10.779 21.84 10.8455L28.728 11.8535C28.8586 11.8724 28.9812 11.9275 29.082 12.0125C29.1829 12.0974 29.258 12.2089 29.2987 12.3343C29.3395 12.4597 29.3444 12.5941 29.3128 12.7221C29.2812 12.8501 29.2145 12.9668 29.12 13.0589L24.1387 17.9095C23.8102 18.2297 23.5644 18.6248 23.4225 19.061C23.2806 19.4972 23.2468 19.9614 23.324 20.4135L24.5 27.2669C24.5231 27.3973 24.509 27.5316 24.4594 27.6544C24.4098 27.7773 24.3266 27.8837 24.2194 27.9615C24.1123 28.0394 23.9854 28.0855 23.8532 28.0947C23.7211 28.1039 23.589 28.0758 23.472 28.0135L17.3147 24.7762C16.909 24.5632 16.4576 24.4519 15.9994 24.4519C15.5411 24.4519 15.0898 24.5632 14.684 24.7762L8.52805 28.0135C8.41116 28.0754 8.27925 28.1032 8.14732 28.0939C8.01539 28.0845 7.88874 28.0383 7.78178 27.9605C7.67481 27.8827 7.59183 27.7764 7.54226 27.6538C7.49269 27.5312 7.47853 27.3971 7.50138 27.2669L8.67605 20.4149C8.75364 19.9625 8.72003 19.4981 8.5781 19.0616C8.43617 18.6251 8.19019 18.2297 7.86138 17.9095L2.88005 13.0602C2.78484 12.9682 2.71737 12.8514 2.68533 12.723C2.65329 12.5945 2.65797 12.4597 2.69882 12.3338C2.73968 12.2079 2.81507 12.096 2.91642 12.0108C3.01777 11.9257 3.14099 11.8707 3.27205 11.8522L10.1587 10.8455C10.6124 10.7795 11.0432 10.6043 11.4142 10.3348C11.7851 10.0654 12.085 9.70988 12.288 9.29885L15.3667 3.06018Z" fill="#0A0A0A"/>
<path d="M16.1419 1.33887C16.4251 1.35861 16.7013 1.4368 16.9524 1.56934L17.0764 1.64062L17.1946 1.71973C17.4248 1.88598 17.6176 2.09864 17.761 2.34375L17.8284 2.46875L17.8294 2.46973L20.9094 8.70898C21.0168 8.92579 21.1747 9.11356 21.3704 9.25586C21.5663 9.39832 21.7938 9.49116 22.0335 9.52637L28.9212 10.5342C29.2506 10.5821 29.5616 10.7098 29.8294 10.9053L29.9407 10.9932L30.0471 11.0879C30.2852 11.3188 30.4636 11.6051 30.5667 11.9219C30.6844 12.2838 30.6987 12.6715 30.6077 13.041C30.5165 13.4106 30.3236 13.7479 30.051 14.0137L25.0686 18.8652C24.8952 19.0344 24.7656 19.2432 24.6907 19.4736C24.6157 19.7042 24.5972 19.9495 24.638 20.1885L25.8128 27.0352L25.8333 27.1768C25.868 27.508 25.8209 27.8441 25.6956 28.1543C25.5524 28.5086 25.3123 28.8154 25.0032 29.04C24.6938 29.2648 24.3271 29.3983 23.9456 29.4248C23.5641 29.4513 23.1825 29.3701 22.845 29.1904L16.6946 25.9561C16.4802 25.8436 16.2414 25.7852 15.9993 25.7852C15.757 25.7852 15.5185 25.8444 15.304 25.957L15.303 25.9561L9.15065 29.1914L9.15162 29.1924C8.81434 29.3708 8.43362 29.4508 8.05299 29.4238C7.67214 29.3968 7.30611 29.2636 6.99733 29.0391C6.68855 28.8145 6.44901 28.5073 6.30592 28.1533C6.1629 27.7994 6.12179 27.4121 6.18776 27.0361L7.36158 20.1895L7.38209 20.0088C7.39083 19.8281 7.36607 19.6466 7.30983 19.4736C7.23477 19.243 7.1047 19.0335 6.93092 18.8643L1.95436 14.0186C1.67958 13.7532 1.48437 13.4165 1.39186 13.0459C1.29936 12.6751 1.31298 12.2853 1.43092 11.9219C1.54888 11.5586 1.76643 11.2359 2.05885 10.9902L2.17115 10.9023C2.40203 10.7344 2.66541 10.6163 2.94459 10.5566L3.08522 10.5322L9.96607 9.52637C10.2058 9.49145 10.4341 9.39819 10.6301 9.25586C10.826 9.11358 10.9847 8.92598 11.0921 8.70898L14.1712 2.46973L14.1721 2.46875C14.3408 2.12803 14.6011 1.84116 14.9241 1.64062L15.0471 1.56934C15.3401 1.4146 15.6675 1.33398 16.0003 1.33398L16.1419 1.33887ZM13.4837 9.88867C13.1849 10.4934 12.7432 11.0177 12.1975 11.4141C11.652 11.8103 11.0181 12.0669 10.3508 12.1641L4.71803 12.9883L8.79127 16.9541C9.27503 17.4252 9.63715 18.0073 9.84596 18.6494C10.0547 19.2915 10.1046 19.9751 9.99049 20.6406L9.02955 26.2422L14.0637 23.5957L14.2913 23.4854C14.8274 23.2441 15.4094 23.1182 15.9993 23.1182C16.5891 23.1182 17.1712 23.2441 17.7073 23.4854L17.9348 23.5957L22.971 26.2432L22.01 20.6387C21.8965 19.9736 21.9458 19.29 22.1546 18.6484C22.3633 18.0069 22.7251 17.426 23.2083 16.9551L27.2796 12.9883L21.6467 12.165C20.9801 12.0672 20.3469 11.8084 19.802 11.4121C19.2572 11.0158 18.8163 10.4936 18.5178 9.88965L16.0003 4.78906L13.4837 9.88867Z" fill="#0A0A0A"/>
</svg>
