<svg width="16" height="17" viewBox="0 0 16 17" fill="none" xmlns="http://www.w3.org/2000/svg">
<path d="M7.68327 2.13495C7.71248 2.07592 7.75761 2.02624 7.81357 1.9915C7.86952 1.95676 7.93407 1.93835 7.99993 1.93835C8.06579 1.93835 8.13034 1.95676 8.1863 1.9915C8.24225 2.02624 8.28738 2.07592 8.3166 2.13495L9.8566 5.25428C9.95805 5.4596 10.1078 5.63722 10.293 5.77192C10.4782 5.90662 10.6933 5.99436 10.9199 6.02762L14.3639 6.53162C14.4292 6.54107 14.4905 6.5686 14.5409 6.61108C14.5914 6.65357 14.6289 6.70932 14.6493 6.77202C14.6697 6.83473 14.6721 6.90189 14.6563 6.96591C14.6405 7.02993 14.6071 7.08825 14.5599 7.13428L12.0693 9.55962C11.905 9.71969 11.7821 9.91727 11.7112 10.1354C11.6402 10.3535 11.6233 10.5855 11.6619 10.8116L12.2499 14.2383C12.2615 14.3035 12.2544 14.3707 12.2296 14.4321C12.2048 14.4935 12.1632 14.5467 12.1096 14.5856C12.056 14.6245 11.9926 14.6476 11.9265 14.6522C11.8604 14.6568 11.7944 14.6427 11.7359 14.6116L8.65727 12.993C8.45441 12.8864 8.22872 12.8308 7.9996 12.8308C7.77048 12.8308 7.54479 12.8864 7.34193 12.993L4.26393 14.6116C4.20549 14.6426 4.13953 14.6565 4.07357 14.6518C4.0076 14.6471 3.94428 14.624 3.8908 14.5851C3.83731 14.5462 3.79582 14.4931 3.77104 14.4318C3.74625 14.3705 3.73917 14.3034 3.7506 14.2383L4.33793 10.8123C4.37673 10.5861 4.35992 10.3539 4.28896 10.1356C4.21799 9.91742 4.09501 9.71972 3.9306 9.55962L1.43993 7.13495C1.39233 7.08897 1.3586 7.03055 1.34258 6.96633C1.32655 6.90212 1.32889 6.8347 1.34932 6.77174C1.36975 6.70879 1.40745 6.65284 1.45812 6.61027C1.50879 6.5677 1.5704 6.54022 1.63593 6.53095L5.07927 6.02762C5.3061 5.99462 5.52153 5.90699 5.70699 5.77228C5.89245 5.63756 6.0424 5.4598 6.14393 5.25428L7.68327 2.13495Z" fill="#FDC700"/>
<path d="M8.07084 1.27429C8.21247 1.28416 8.35056 1.32326 8.47611 1.38953L8.53812 1.42517L8.5972 1.46472C8.7123 1.54785 8.80873 1.65418 8.88041 1.77673L8.9141 1.83923L8.91459 1.83972L10.4546 4.95935C10.5083 5.06775 10.5873 5.16164 10.6851 5.23279C10.783 5.30402 10.8968 5.35044 11.0166 5.36804L14.4605 5.87195C14.6252 5.8959 14.7807 5.95976 14.9146 6.0575L14.9703 6.10144L15.0235 6.1488C15.1425 6.26423 15.2317 6.40742 15.2832 6.5658C15.3421 6.74674 15.3493 6.94061 15.3037 7.12537C15.2582 7.31018 15.1617 7.47881 15.0254 7.61169L12.5342 10.0375C12.4475 10.1221 12.3827 10.2265 12.3453 10.3417C12.3077 10.457 12.2985 10.5796 12.3189 10.6991L12.9063 14.1224L12.9165 14.1932C12.9339 14.3589 12.9103 14.5269 12.8477 14.682C12.7761 14.8592 12.6561 15.0126 12.5015 15.1249C12.3468 15.2372 12.1634 15.304 11.9727 15.3173C11.782 15.3305 11.5911 15.2899 11.4224 15.2001L8.3472 13.5829C8.24001 13.5266 8.12061 13.4974 7.99955 13.4974C7.87842 13.4974 7.75913 13.5271 7.65189 13.5834L7.6514 13.5829L4.57523 15.2006L4.57572 15.201C4.40708 15.2903 4.21672 15.3303 4.0264 15.3168C3.83598 15.3032 3.65296 15.2367 3.49857 15.1244C3.34418 15.0121 3.22441 14.8585 3.15287 14.6815C3.08136 14.5046 3.0608 14.3109 3.09379 14.1229L3.6807 10.6996L3.69095 10.6093C3.69532 10.5189 3.68294 10.4282 3.65482 10.3417C3.61729 10.2263 3.55226 10.1216 3.46537 10.037L0.977087 7.61414C0.839699 7.48144 0.742095 7.31313 0.695837 7.12781C0.649589 6.94243 0.656397 6.74752 0.715368 6.5658C0.774349 6.38417 0.883126 6.22282 1.02933 6.09998L1.08549 6.05603C1.20092 5.97206 1.33261 5.91301 1.4722 5.88318L1.54252 5.87097L4.98295 5.36804C5.1028 5.35059 5.21697 5.30395 5.31498 5.23279C5.41292 5.16165 5.49225 5.06785 5.54593 4.95935L7.08548 1.83972L7.08597 1.83923C7.17031 1.66887 7.30045 1.52544 7.46195 1.42517L7.52347 1.38953C7.66996 1.31216 7.83366 1.27185 8.00004 1.27185L8.07084 1.27429ZM6.74173 5.54919C6.59236 5.85153 6.37152 6.1137 6.09867 6.31189C5.82589 6.50998 5.50894 6.63833 5.17533 6.68689L2.35892 7.099L4.39554 9.08191C4.63743 9.31746 4.81848 9.60849 4.92289 9.92957C5.02728 10.2506 5.05223 10.5924 4.99515 10.9252L4.51468 13.726L7.03177 12.4027L7.14554 12.3475C7.41362 12.2269 7.70463 12.1639 7.99955 12.1639C8.29445 12.1639 8.58549 12.2269 8.85355 12.3475L8.96732 12.4027L11.4854 13.7264L11.0049 10.9242C10.9481 10.5917 10.9728 10.2499 11.0772 9.92908C11.1816 9.6083 11.3625 9.31784 11.604 9.0824L13.6397 7.099L10.8233 6.68738C10.49 6.63845 10.1734 6.50906 9.90092 6.31091C9.6285 6.11278 9.40805 5.85167 9.25883 5.54968L8.00004 2.99939L6.74173 5.54919Z" fill="#FDC700"/>
</svg>
