<svg width="20" height="21" viewBox="0 0 20 21" fill="none" xmlns="http://www.w3.org/2000/svg">
<path d="M10.0887 1.33679C10.2657 1.34913 10.4383 1.398 10.5953 1.48083L10.6728 1.52539L10.7466 1.57483C10.8905 1.67874 11.011 1.81165 11.1006 1.96484L11.1427 2.04297L11.1434 2.04358L13.0684 5.94312C13.1355 6.07862 13.2342 6.19598 13.3565 6.28491C13.4789 6.37395 13.6212 6.43197 13.7709 6.45398L18.0757 7.08386C18.2816 7.1138 18.476 7.19363 18.6434 7.3158L18.7129 7.37073L18.7795 7.42993C18.9283 7.57422 19.0398 7.75321 19.1042 7.95117C19.1777 8.17735 19.1867 8.41969 19.1298 8.65063C19.0728 8.88165 18.9523 9.09244 18.7819 9.25854L15.6679 12.2908C15.5595 12.3965 15.4785 12.527 15.4317 12.671C15.3848 12.8151 15.3733 12.9684 15.3987 13.1178L16.133 17.397L16.1458 17.4855C16.1675 17.6925 16.1381 17.9026 16.0597 18.0964C15.9702 18.3179 15.8202 18.5096 15.627 18.65C15.4336 18.7905 15.2044 18.8739 14.966 18.8905C14.7276 18.9071 14.4891 18.8563 14.2781 18.744L10.4341 16.7225C10.3001 16.6522 10.1509 16.6157 9.99956 16.6157C9.84815 16.6157 9.69904 16.6528 9.56499 16.7231L9.56438 16.7225L5.71916 18.7446L5.71977 18.7452C5.50897 18.8568 5.27102 18.9068 5.03313 18.8899C4.79509 18.873 4.56632 18.7898 4.37334 18.6494C4.18035 18.5091 4.03064 18.3171 3.94121 18.0958C3.85182 17.8746 3.82613 17.6326 3.86735 17.3976L4.601 13.1184L4.61381 13.0055C4.61927 12.8926 4.6038 12.7791 4.56865 12.671C4.52174 12.5269 4.44044 12.3959 4.33183 12.2902L1.22148 9.2616C1.04975 9.09572 0.92774 8.88534 0.869918 8.65369C0.812108 8.42197 0.820618 8.17833 0.894332 7.95117C0.968059 7.72414 1.10403 7.52245 1.28679 7.3689L1.35698 7.31396C1.50127 7.20901 1.66589 7.13519 1.84038 7.0979L1.92827 7.08264L6.2288 6.45398C6.37862 6.43216 6.52133 6.37387 6.64384 6.28491C6.76627 6.19599 6.86544 6.07874 6.93254 5.94312L8.85698 2.04358L8.85759 2.04297C8.96301 1.83002 9.12568 1.65073 9.32756 1.52539L9.40446 1.48083C9.58757 1.38413 9.7922 1.33374 10.0002 1.33374L10.0887 1.33679ZM8.42729 6.68042C8.24057 7.05834 7.96452 7.38606 7.62346 7.63379C7.28248 7.88141 6.88629 8.04184 6.46928 8.10254L2.94878 8.61768L5.49455 11.0963C5.7969 11.3908 6.02322 11.7545 6.15373 12.1559C6.28422 12.5572 6.31541 12.9845 6.24406 13.4004L5.64348 16.9014L8.78984 15.2473L8.93205 15.1783C9.26714 15.0276 9.63091 14.9489 9.99956 14.9489C10.3682 14.9489 10.732 15.0276 11.0671 15.1783L11.2093 15.2473L14.3569 16.902L13.7563 13.3992C13.6853 12.9835 13.7161 12.5562 13.8466 12.1553C13.9771 11.7543 14.2032 11.3912 14.5052 11.0969L17.0497 8.61768L13.5292 8.10315C13.1126 8.042 12.7168 7.88025 12.3763 7.63257C12.0358 7.3849 11.7602 7.05852 11.5737 6.68103L10.0002 3.49316L8.42729 6.68042Z" fill="#D1D5DC"/>
</svg>
