<svg width="16" height="17" viewBox="0 0 16 17" fill="none" xmlns="http://www.w3.org/2000/svg">
<path d="M6.00018 11.938V7.93799C6.00018 7.5698 6.2985 7.27148 6.66669 7.27148C7.03488 7.27148 7.33319 7.5698 7.33319 7.93799V11.938C7.33319 12.3062 7.03488 12.6045 6.66669 12.6045C6.2985 12.6045 6.00018 12.3062 6.00018 11.938Z" fill="#D4183D"/>
<path d="M8.66681 11.938V7.93799C8.66681 7.5698 8.96512 7.27148 9.33331 7.27148C9.7015 7.27148 9.99982 7.5698 9.99982 7.93799V11.938C9.99982 12.3062 9.7015 12.6045 9.33331 12.6045C8.96512 12.6045 8.66681 12.3062 8.66681 11.938Z" fill="#D4183D"/>
<path d="M2.66681 13.9382V4.60474C2.66681 4.23655 2.96512 3.93823 3.33331 3.93823C3.7015 3.93823 3.99982 4.23655 3.99982 4.60474V13.9382C3.99986 14.1149 4.07019 14.2844 4.19513 14.4094C4.32015 14.5344 4.49 14.6047 4.66681 14.6047H11.3333C11.5101 14.6047 11.6795 14.5344 11.8045 14.4094C11.9295 14.2844 11.9998 14.115 11.9998 13.9382V4.60474C11.9998 4.23655 12.2986 3.93823 12.6668 3.93823C13.0349 3.93832 13.3333 4.2366 13.3333 4.60474V13.9382C13.3333 14.4686 13.1224 14.9773 12.7474 15.3523C12.3723 15.7273 11.8637 15.9382 11.3333 15.9382H4.66681C4.13638 15.9382 3.62733 15.7274 3.25226 15.3523C2.87727 14.9773 2.66685 14.4686 2.66681 13.9382Z" fill="#D4183D"/>
<path d="M14 3.93823C14.3682 3.93823 14.6665 4.23655 14.6665 4.60474C14.6665 4.97293 14.3682 5.27124 14 5.27124H2C1.63181 5.27124 1.3335 4.97293 1.3335 4.60474C1.3335 4.23655 1.63181 3.93823 2 3.93823H14Z" fill="#D4183D"/>
<path d="M9.99982 4.60449V3.27148C9.99982 3.09467 9.92953 2.92483 9.8045 2.7998C9.6795 2.67488 9.51005 2.60449 9.33331 2.60449H6.66681C6.49 2.60449 6.32015 2.67478 6.19513 2.7998C6.07011 2.92483 5.99982 3.09467 5.99982 3.27148V4.60449C5.99982 4.97268 5.7015 5.27148 5.33331 5.27148C4.96512 5.27148 4.66681 4.97268 4.66681 4.60449V3.27148C4.66681 2.74105 4.87719 2.23201 5.25226 1.85693C5.62733 1.48186 6.13638 1.27148 6.66681 1.27148H9.33331C9.86367 1.27148 10.3723 1.48196 10.7474 1.85693C11.1224 2.23201 11.3333 2.74105 11.3333 3.27148V4.60449C11.3333 4.97263 11.0349 5.2714 10.6668 5.27148C10.2986 5.27148 9.99982 4.97268 9.99982 4.60449Z" fill="#D4183D"/>
</svg>
