<svg width="32" height="32" viewBox="0 0 32 32" fill="none" xmlns="http://www.w3.org/2000/svg">
<path d="M12.0004 22.6665V14.6665C12.0004 13.9301 12.597 13.3335 13.3334 13.3335C14.0698 13.3335 14.6664 13.9301 14.6664 14.6665V22.6665C14.6664 23.4029 14.0698 23.9995 13.3334 23.9995C12.597 23.9995 12.0004 23.4029 12.0004 22.6665Z" fill="#0A0A0A"/>
<path d="M17.3336 22.6665V14.6665C17.3336 13.9301 17.9302 13.3335 18.6666 13.3335C19.403 13.3335 19.9996 13.9301 19.9996 14.6665V22.6665C19.9996 23.4029 19.403 23.9995 18.6666 23.9995C17.9302 23.9995 17.3336 23.4029 17.3336 22.6665Z" fill="#0A0A0A"/>
<path d="M5.33362 26.667V8C5.33362 7.26362 5.93025 6.66699 6.66663 6.66699C7.40301 6.66699 7.99963 7.26362 7.99963 8V26.667C7.99972 27.0204 8.14039 27.3594 8.39026 27.6094C8.64031 27.8594 8.98 28 9.33362 28H22.6666C23.0202 28 23.359 27.8593 23.609 27.6094C23.859 27.3594 23.9995 27.0205 23.9996 26.667V8C23.9996 7.26362 24.5972 6.66699 25.3336 6.66699C26.0698 6.66717 26.6666 7.26373 26.6666 8V26.667C26.6665 27.7277 26.2448 28.745 25.4948 29.4951C24.7446 30.2452 23.7274 30.667 22.6666 30.667H9.33362C8.27275 30.667 7.25466 30.2453 6.50452 29.4951C5.75455 28.7451 5.3337 27.7277 5.33362 26.667Z" fill="#0A0A0A"/>
<path d="M28 6.66699C28.7364 6.66699 29.333 7.26362 29.333 8C29.333 8.73638 28.7364 9.33301 28 9.33301H4C3.26362 9.33301 2.66699 8.73638 2.66699 8C2.66699 7.26362 3.26362 6.66699 4 6.66699H28Z" fill="#0A0A0A"/>
<path d="M19.9996 7.99951V5.3335C19.9996 4.97987 19.8591 4.64019 19.609 4.39014C19.359 4.14029 19.0201 3.99951 18.6666 3.99951H13.3336C12.98 3.99951 12.6403 4.14009 12.3903 4.39014C12.1402 4.64019 11.9996 4.97987 11.9996 5.3335V7.99951C11.9996 8.73589 11.403 9.3335 10.6666 9.3335C9.93025 9.3335 9.33362 8.73589 9.33362 7.99951V5.3335C9.33362 4.27263 9.75437 3.25454 10.5045 2.50439C11.2547 1.75425 12.2728 1.3335 13.3336 1.3335H18.6666C19.7273 1.3335 20.7446 1.75445 21.4948 2.50439C22.2449 3.25454 22.6666 4.27263 22.6666 5.3335V7.99951C22.6666 8.73578 22.0698 9.33332 21.3336 9.3335C20.5972 9.3335 19.9996 8.73589 19.9996 7.99951Z" fill="#0A0A0A"/>
</svg>
